<svg width="191" height="54" viewBox="0 0 191 54" fill="none" xmlns="http://www.w3.org/2000/svg">
<g clip-path="url(#clip0_99_620)">
<path d="M104.675 29.903C102.27 31.9928 98.9139 33.6648 96.2556 33.6648C94.7363 33.6648 93.597 32.9957 93.597 31.5331C93.597 29.9866 95.2005 29.2761 97.0152 28.8166L103.789 27.3957L104.675 27.1366V29.903ZM130.983 18.1645H126.307L119.772 24.4549L113.237 18.1645H108.561L117.434 26.7049L111.98 31.9553L111.975 31.9508C110.836 32.954 110.161 33.4137 109.444 33.4137C108.431 33.4137 108.051 32.6616 108.051 31.4911V24.1772C108.051 20.332 105.814 17.6992 100.793 17.6992C97.206 17.6992 93.0487 18.7859 90.3058 21.1683L92.0361 24.0103C94.3147 22.0041 96.8888 20.8341 99.7161 20.8341C102.839 20.8341 104.675 21.9623 104.675 24.0521V24.3446L96.2557 26.2256C92.1625 27.2286 89.9258 28.9836 89.9258 31.826C89.9258 34.9186 92.2889 36.5906 95.7914 36.5906C98.7454 36.5906 102.942 34.3225 104.841 32.8178L104.928 33.7068C105.434 35.4205 107.702 36.5906 109.475 36.5906C111.205 36.5906 112.497 35.9218 114.227 34.2503L119.772 28.9554L127.202 36.1064H131.877L122.11 26.7055L130.983 18.1645Z" fill="#D9D9D9"/>
<path d="M139.649 33.4141C135.809 33.4141 133.235 30.7393 133.235 27.1448C133.235 23.5503 135.809 20.8757 139.649 20.8757C143.49 20.8757 146.106 23.5506 146.106 27.1448C146.106 30.739 143.489 33.4141 139.649 33.4141ZM139.649 17.6992C133.91 17.6992 129.564 21.7953 129.564 27.1446C129.564 32.494 133.91 36.59 139.649 36.59C145.431 36.59 149.735 32.4943 149.735 27.1446C149.735 21.7949 145.431 17.6992 139.649 17.6992Z" fill="#D9D9D9"/>
<path d="M162.084 17.6992C159.594 17.6992 157.442 18.9533 156.049 20.6248L155.163 21.6779V18.2843H151.618V36.0053H155.163V25.8908C156.682 23.3416 158.834 20.9177 161.619 20.9177C164.658 20.9177 165.67 22.9239 165.67 25.6819V36.0053H169.215V24.9714C169.215 20.2489 166.345 17.6992 162.084 17.6992Z" fill="#D9D9D9"/>
<path d="M174.729 24.9712C175.615 22.3384 178.147 20.8337 181.016 20.8337C183.886 20.8337 185.953 22.5056 186.798 24.6369L187.05 25.4727H174.585L174.729 24.9712ZM181.396 33.4139C177.556 33.4139 175.277 31.3241 174.56 28.8164L174.496 28.2314H190.975C190.975 22.8817 187.726 17.6992 181.016 17.6992C175.235 17.6992 170.973 21.7955 170.973 27.145C170.973 32.4945 175.235 36.5902 181.396 36.5902C184.519 36.5902 187.515 35.4203 190.3 33.0797L188.528 30.7393C186.333 32.4947 184.055 33.4139 181.396 33.4139Z" fill="#D9D9D9"/>
<path d="M4.90912 27.0001L24.5454 7.36371L27.0002 4.90933L36.8181 14.7274L39.2728 17.182L49.0909 27.0001L46.6363 29.4547L41.7272 34.3638L44.1817 36.8184L51.5456 29.4547L54 27.0001L41.7272 14.7274L39.2728 12.2729L31.9089 4.90933L29.4546 2.45457L27.0002 0L2.45475 24.5457L0 27.0001L24.5454 51.5456L27.0002 54L36.8181 44.1821L34.3637 41.7273L27.0002 49.0912L4.90912 27.0001Z" fill="#D9D9D9"/>
<path d="M41.7873 9.81825L44.1818 12.2726L51.3661 4.90912L72.918 27.0002L53.7606 46.6363L51.3661 49.0909L41.7873 39.2728L39.3926 36.8181L29.8138 27.0002L32.2083 24.5454L36.9977 19.6363L34.6032 17.1817L27.4193 24.5454L25.0244 27.0002L36.9977 39.2728L39.3926 41.7272L46.5767 49.0909L48.9712 51.5454L51.3661 54L75.3125 29.4546L77.7073 27.0002L53.7606 2.45475L51.3661 0L41.7873 9.81825Z" fill="white"/>
</g>
<defs>
<clipPath id="clip0_99_620">
<rect width="191" height="54" fill="white"/>
</clipPath>
</defs>
</svg>
